<svg width="34" height="34" viewBox="0 0 34 34" fill="none" xmlns="http://www.w3.org/2000/svg">
<g id="Shopping cart" clip-path="url(#clip0_6_571)">
<path id="Icon" d="M1.41666 1.41663H7.08332L10.88 20.3858C11.0095 21.038 11.3644 21.6239 11.8823 22.0409C12.4003 22.4579 13.0485 22.6794 13.7133 22.6666H27.4833C28.1482 22.6794 28.7963 22.4579 29.3143 22.0409C29.8323 21.6239 30.1871 21.038 30.3167 20.3858L32.5833 8.49996H8.49999M14.1667 29.75C14.1667 30.5324 13.5324 31.1666 12.75 31.1666C11.9676 31.1666 11.3333 30.5324 11.3333 29.75C11.3333 28.9676 11.9676 28.3333 12.75 28.3333C13.5324 28.3333 14.1667 28.9676 14.1667 29.75ZM29.75 29.75C29.75 30.5324 29.1157 31.1666 28.3333 31.1666C27.5509 31.1666 26.9167 30.5324 26.9167 29.75C26.9167 28.9676 27.5509 28.3333 28.3333 28.3333C29.1157 28.3333 29.75 28.9676 29.75 29.75Z" stroke="#1E1E1E" stroke-width="4" stroke-linecap="round" stroke-linejoin="round"/>
</g>
<defs>
<clipPath id="clip0_6_571">
<rect width="34" height="34" fill="white"/>
</clipPath>
</defs>
</svg>
