<svg width="200" height="200" viewBox="0 0 200 200" fill="none" xmlns="http://www.w3.org/2000/svg">
<g filter="url(#filter0_d_1_5)">
<path d="M32.48 62C32.4 62 32.36 61.92 32.36 61.76C32.36 61.6 32.4 61.52 32.48 61.52C33.5733 61.52 34.3733 61.4533 34.88 61.32C35.4133 61.1867 35.7733 60.9333 35.96 60.56C36.1467 60.16 36.24 59.56 36.24 58.76V40.24C36.24 39.4667 36.16 38.92 36 38.6C35.84 38.2533 35.5333 38.0267 35.08 37.92C34.6533 37.8133 33.9467 37.76 32.96 37.76C31.3067 37.76 30.0133 38.2267 29.08 39.16C28.1467 40.0667 27.4533 41.5467 27 43.6C26.9733 43.6533 26.88 43.68 26.72 43.68C26.5867 43.68 26.52 43.64 26.52 43.56C26.6267 42.8133 26.7467 41.6 26.88 39.92C27.0133 38.24 27.08 36.9733 27.08 36.12C27.08 35.9867 27.16 35.92 27.32 35.92C27.48 35.92 27.56 35.9867 27.56 36.12C27.56 36.7067 28.2933 37 29.76 37C31.28 37.0533 33.96 37.08 37.8 37.08C41.6933 37.08 44.2667 37.0533 45.52 37C47.1467 36.9467 48.4933 36.5733 49.56 35.88C50.6533 35.16 51.4 34.2 51.8 33C51.8 32.92 51.88 32.88 52.04 32.88C52.12 32.88 52.1867 32.8933 52.24 32.92C52.32 32.9467 52.36 32.9867 52.36 33.04V58.76C52.36 59.88 52.52 60.6267 52.84 61C53.16 61.3467 53.8133 61.52 54.8 61.52C54.88 61.52 54.92 61.6 54.92 61.76C54.92 61.92 54.88 62 54.8 62C54.1333 62 53.6133 61.9867 53.24 61.96L51.04 61.92L48.8 61.96C48.4267 61.9867 47.9067 62 47.24 62C47.1867 62 47.16 61.92 47.16 61.76C47.16 61.6 47.1867 61.52 47.24 61.52C48.2267 61.52 48.88 61.3467 49.2 61C49.52 60.6267 49.68 59.88 49.68 58.76V38.32C49.68 37.9467 49.4667 37.76 49.04 37.76H42.68C41.6933 37.76 40.9867 37.8267 40.56 37.96C40.1333 38.0667 39.84 38.2933 39.68 38.64C39.52 38.9867 39.44 39.5467 39.44 40.32V58.76C39.44 59.5867 39.52 60.1867 39.68 60.56C39.8667 60.9333 40.2133 61.1867 40.72 61.32C41.2267 61.4533 42.04 61.52 43.16 61.52C43.2133 61.52 43.24 61.6 43.24 61.76C43.24 61.92 43.2133 62 43.16 62C42.2267 62 41.4933 61.9867 40.96 61.96L37.8 61.92L34.72 61.96C34.1867 61.9867 33.44 62 32.48 62ZM58 62C57.9467 62 57.92 61.92 57.92 61.76C57.92 61.6 57.9467 61.52 58 61.52C58.9867 61.52 59.64 61.3467 59.96 61C60.28 60.6267 60.44 59.88 60.44 58.76V52.6C60.44 51.0533 60.1467 49.9067 59.56 49.16C58.9733 48.4133 58.08 48.04 56.88 48.04C55.9467 48.04 55 48.3333 54.04 48.92C53.08 49.48 52.28 50.2267 51.64 51.16L51.52 50.56C52.64 49.0667 53.76 47.96 54.88 47.24C56.0267 46.4933 57.24 46.12 58.52 46.12C59.96 46.12 61.0933 46.56 61.92 47.44C62.7467 48.2933 63.16 49.4933 63.16 51.04V58.76C63.16 59.5333 63.2133 60.12 63.32 60.52C63.4533 60.8933 63.68 61.16 64 61.32C64.3467 61.4533 64.8667 61.52 65.56 61.52C65.64 61.52 65.68 61.6 65.68 61.76C65.68 61.92 65.64 62 65.56 62C64.8933 62 64.3733 61.9867 64 61.96L61.8 61.92L59.56 61.96C59.1867 61.9867 58.6667 62 58 62ZM79.3272 62.48C77.7539 62.48 76.3939 62.1333 75.2472 61.44C74.1005 60.72 73.2339 59.7733 72.6472 58.6C72.0605 57.4 71.7672 56.12 71.7672 54.76C71.7672 53.1867 72.1405 51.7467 72.8872 50.44C73.6605 49.1333 74.7005 48.1067 76.0072 47.36C77.3139 46.5867 78.7672 46.2 80.3672 46.2C81.9405 46.2 83.1405 46.6 83.9672 47.4C84.7939 48.1733 85.2072 49.2933 85.2072 50.76C85.2072 51.5067 85.0472 51.88 84.7272 51.88H81.9672C82.0739 50.3067 81.8605 49.1067 81.3272 48.28C80.8205 47.4267 80.0472 47 79.0072 47C77.7005 47 76.6739 47.56 75.9272 48.68C75.2072 49.7733 74.8472 51.28 74.8472 53.2C74.8472 55.5467 75.3805 57.4133 76.4472 58.8C77.5405 60.1867 79.0872 60.88 81.0872 60.88C81.8605 60.88 82.5272 60.7867 83.0872 60.6C83.6472 60.3867 84.3005 60.0667 85.0472 59.64H85.0872C85.1672 59.64 85.2339 59.6933 85.2872 59.8C85.3672 59.88 85.3805 59.96 85.3272 60.04C84.3672 60.8933 83.4072 61.52 82.4472 61.92C81.4872 62.2933 80.4472 62.48 79.3272 62.48ZM73.8872 51.32L82.8472 51.16V51.88L73.9272 51.92L73.8872 51.32ZM31.16 89.48C31.16 90.4933 31.4133 91.3867 31.92 92.16C32.4267 92.9067 33.04 93.56 33.76 94.12C34.48 94.6533 35.48 95.3067 36.76 96.08C38.0933 96.9067 39.1467 97.6267 39.92 98.24C40.72 98.8267 41.4 99.56 41.96 100.44C42.52 101.32 42.8 102.36 42.8 103.56C42.8 104.867 42.4533 106.053 41.76 107.12C41.0933 108.16 40.12 108.987 38.84 109.6C37.5867 110.187 36.12 110.48 34.44 110.48C33.3733 110.48 32.32 110.347 31.28 110.08C30.24 109.84 29.3333 109.48 28.56 109C28.4267 108.92 28.3333 108.827 28.28 108.72C28.2267 108.613 28.2 108.453 28.2 108.24L27.8 102.52C27.7733 102.413 27.8267 102.347 27.96 102.32C28.12 102.293 28.2133 102.333 28.24 102.44C28.88 104.467 29.7733 106.187 30.92 107.6C32.0667 109.013 33.56 109.72 35.4 109.72C36.6533 109.72 37.7067 109.387 38.56 108.72C39.4133 108.027 39.84 106.907 39.84 105.36C39.84 104.187 39.5733 103.16 39.04 102.28C38.5067 101.4 37.8533 100.667 37.08 100.08C36.3067 99.4667 35.28 98.7733 34 98C32.7467 97.2 31.7467 96.52 31 95.96C30.28 95.3733 29.6667 94.6667 29.16 93.84C28.6533 92.9867 28.4 92 28.4 90.88C28.4 89.52 28.76 88.36 29.48 87.4C30.2267 86.44 31.1867 85.7333 32.36 85.28C33.56 84.8 34.8133 84.56 36.12 84.56C37.88 84.56 39.4933 84.8667 40.96 85.48C41.36 85.6667 41.56 85.9067 41.56 86.2L41.76 91.2C41.76 91.3067 41.68 91.3733 41.52 91.4C41.3867 91.4 41.3067 91.3467 41.28 91.24C40.9867 89.8 40.36 88.44 39.4 87.16C38.4667 85.88 37.12 85.24 35.36 85.24C34.0267 85.24 32.9867 85.64 32.24 86.44C31.52 87.24 31.16 88.2533 31.16 89.48ZM58.2409 110.48C56.5076 110.48 55.0409 110.107 53.8409 109.36C52.6676 108.587 51.7876 107.6 51.2009 106.4C50.6409 105.2 50.3609 103.933 50.3609 102.6C50.3609 100.893 50.8009 99.4133 51.6809 98.16C52.5609 96.88 53.6943 95.9067 55.0809 95.24C56.4676 94.5467 57.8809 94.2 59.3209 94.2C60.5209 94.2 61.6143 94.4533 62.6009 94.96C63.5876 95.44 64.0809 96.0533 64.0809 96.8C64.0809 97.2 63.9343 97.5467 63.6409 97.84C63.3476 98.1333 62.9476 98.28 62.4409 98.28C61.5876 98.28 60.9209 97.76 60.4409 96.72C60.1476 96.1067 59.8276 95.6667 59.4809 95.4C59.1343 95.1333 58.6143 95 57.9209 95C56.5343 95 55.4409 95.5867 54.6409 96.76C53.8409 97.9067 53.4409 99.44 53.4409 101.36C53.4409 103.573 53.9743 105.387 55.0409 106.8C56.1343 108.213 57.7876 108.92 60.0009 108.92C61.4676 108.92 62.8009 108.507 64.0009 107.68H64.0809C64.1609 107.68 64.2276 107.72 64.2809 107.8C64.3609 107.88 64.3609 107.947 64.2809 108C63.3476 108.853 62.4009 109.48 61.4409 109.88C60.4809 110.28 59.4143 110.48 58.2409 110.48ZM78.2881 110.48C76.7148 110.48 75.3548 110.133 74.2081 109.44C73.0615 108.72 72.1948 107.773 71.6081 106.6C71.0215 105.4 70.7281 104.12 70.7281 102.76C70.7281 101.187 71.1015 99.7467 71.8481 98.44C72.6215 97.1333 73.6615 96.1067 74.9681 95.36C76.2748 94.5867 77.7281 94.2 79.3281 94.2C80.9015 94.2 82.1015 94.6 82.9281 95.4C83.7548 96.1733 84.1681 97.2933 84.1681 98.76C84.1681 99.5067 84.0081 99.88 83.6881 99.88H80.9281C81.0348 98.3067 80.8215 97.1067 80.2881 96.28C79.7815 95.4267 79.0081 95 77.9681 95C76.6615 95 75.6348 95.56 74.8881 96.68C74.1681 97.7733 73.8081 99.28 73.8081 101.2C73.8081 103.547 74.3415 105.413 75.4081 106.8C76.5015 108.187 78.0481 108.88 80.0481 108.88C80.8215 108.88 81.4881 108.787 82.0481 108.6C82.6081 108.387 83.2615 108.067 84.0081 107.64H84.0481C84.1281 107.64 84.1948 107.693 84.2481 107.8C84.3281 107.88 84.3415 107.96 84.2881 108.04C83.3281 108.893 82.3681 109.52 81.4081 109.92C80.4481 110.293 79.4081 110.48 78.2881 110.48ZM72.8481 99.32L81.8081 99.16V99.88L72.8881 99.92L72.8481 99.32ZM102.253 110C102.173 110 102.133 109.92 102.133 109.76C102.133 109.6 102.173 109.52 102.253 109.52C102.92 109.52 103.413 109.453 103.733 109.32C104.08 109.16 104.307 108.893 104.413 108.52C104.547 108.12 104.613 107.533 104.613 106.76V100.48C104.613 98.9333 104.333 97.8 103.773 97.08C103.213 96.36 102.32 96 101.093 96C100.16 96 99.2134 96.28 98.2534 96.84C97.3201 97.4 96.5201 98.1467 95.8534 99.08L95.6934 98.6C97.9334 95.56 100.28 94.04 102.733 94.04C104.2 94.04 105.333 94.48 106.133 95.36C106.96 96.2133 107.373 97.4133 107.373 98.96V106.76C107.373 107.533 107.427 108.12 107.533 108.52C107.667 108.893 107.893 109.16 108.213 109.32C108.56 109.453 109.08 109.52 109.773 109.52C109.853 109.52 109.893 109.6 109.893 109.76C109.893 109.92 109.853 110 109.773 110C109.133 110 108.613 109.987 108.213 109.96L106.013 109.92L103.813 109.96C103.413 109.987 102.893 110 102.253 110ZM91.4934 110C91.4134 110 91.3734 109.92 91.3734 109.76C91.3734 109.6 91.4134 109.52 91.4934 109.52C92.1601 109.52 92.6534 109.453 92.9734 109.32C93.3201 109.16 93.5468 108.893 93.6534 108.52C93.7868 108.12 93.8534 107.533 93.8534 106.76V98.96C93.8534 98.08 93.7468 97.4533 93.5334 97.08C93.3468 96.68 93.0134 96.48 92.5334 96.48C92.0801 96.48 91.3734 96.6667 90.4134 97.04H90.3334C90.2534 97.04 90.1868 96.9733 90.1334 96.84C90.1068 96.7067 90.1334 96.6267 90.2134 96.6L95.1334 94.24L95.3734 94.2C95.6401 94.2 95.9068 94.52 96.1734 95.16C96.4668 95.7733 96.6134 96.5867 96.6134 97.6V106.76C96.6134 107.533 96.6668 108.12 96.7734 108.52C96.9068 108.893 97.1334 109.16 97.4534 109.32C97.8001 109.453 98.3201 109.52 99.0134 109.52C99.0934 109.52 99.1334 109.6 99.1334 109.76C99.1334 109.92 99.0934 110 99.0134 110C98.3734 110 97.8534 109.987 97.4534 109.96L95.2534 109.92L93.0134 109.96C92.6401 109.987 92.1334 110 91.4934 110ZM122.035 110.48C120.915 110.48 119.968 110.227 119.195 109.72C118.448 109.187 118.075 108.307 118.075 107.08V97.84C118.075 96.9067 117.941 96.3067 117.675 96.04C117.435 95.7733 116.875 95.64 115.995 95.64C115.915 95.64 115.875 95.5333 115.875 95.32C115.875 95.1333 115.915 95.04 115.995 95.04C117.168 95.0133 118.115 94.7333 118.835 94.2C119.555 93.64 120.021 92.88 120.235 91.92C120.261 91.84 120.368 91.8 120.555 91.8C120.741 91.8 120.835 91.84 120.835 91.92V105.72C120.835 107.827 121.861 108.88 123.915 108.88C125.061 108.88 126.115 108.507 127.075 107.76C127.101 107.733 127.141 107.72 127.195 107.72C127.275 107.72 127.341 107.773 127.395 107.88C127.448 107.987 127.435 108.067 127.355 108.12C126.368 108.947 125.461 109.547 124.635 109.92C123.808 110.293 122.941 110.48 122.035 110.48ZM126.155 96.52C124.368 96.12 122.301 95.92 119.955 95.92V95C121.635 95 123.741 94.8667 126.275 94.6C126.355 94.6 126.421 94.6933 126.475 94.88C126.528 95.0667 126.555 95.28 126.555 95.52C126.555 95.76 126.515 96 126.435 96.24C126.355 96.4533 126.261 96.5467 126.155 96.52ZM141.03 110.48C139.457 110.48 138.097 110.133 136.95 109.44C135.804 108.72 134.937 107.773 134.35 106.6C133.764 105.4 133.47 104.12 133.47 102.76C133.47 101.187 133.844 99.7467 134.59 98.44C135.364 97.1333 136.404 96.1067 137.71 95.36C139.017 94.5867 140.47 94.2 142.07 94.2C143.644 94.2 144.844 94.6 145.67 95.4C146.497 96.1733 146.91 97.2933 146.91 98.76C146.91 99.5067 146.75 99.88 146.43 99.88H143.67C143.777 98.3067 143.564 97.1067 143.03 96.28C142.524 95.4267 141.75 95 140.71 95C139.404 95 138.377 95.56 137.63 96.68C136.91 97.7733 136.55 99.28 136.55 101.2C136.55 103.547 137.084 105.413 138.15 106.8C139.244 108.187 140.79 108.88 142.79 108.88C143.564 108.88 144.23 108.787 144.79 108.6C145.35 108.387 146.004 108.067 146.75 107.64H146.79C146.87 107.64 146.937 107.693 146.99 107.8C147.07 107.88 147.084 107.96 147.03 108.04C146.07 108.893 145.11 109.52 144.15 109.92C143.19 110.293 142.15 110.48 141.03 110.48ZM135.59 99.32L144.55 99.16V99.88L135.63 99.92L135.59 99.32ZM159.921 110.52C158.801 110.52 157.761 110.213 156.801 109.6C155.841 108.96 155.081 108.053 154.521 106.88C153.961 105.707 153.681 104.36 153.681 102.84C153.681 100.893 154.148 99.2667 155.081 97.96C156.015 96.6267 157.175 95.64 158.561 95C159.975 94.36 161.388 94.04 162.801 94.04C164.535 94.04 166.175 94.5733 167.721 95.64L167.081 98.52C166.441 97.3467 165.708 96.4533 164.881 95.84C164.081 95.2267 163.081 94.92 161.881 94.92C160.281 94.92 159.015 95.48 158.081 96.6C157.175 97.72 156.721 99.3867 156.721 101.6C156.721 103.84 157.188 105.627 158.121 106.96C159.055 108.267 160.241 108.92 161.681 108.92C162.748 108.92 163.708 108.64 164.561 108.08C165.441 107.493 166.348 106.68 167.281 105.64L167.641 105.96C166.415 107.347 165.215 108.453 164.041 109.28C162.868 110.107 161.495 110.52 159.921 110.52ZM169.121 105.52C169.121 106.453 169.228 107.133 169.441 107.56C169.655 107.96 170.001 108.16 170.481 108.16C171.095 108.16 171.748 107.987 172.441 107.64L172.521 107.6C172.601 107.6 172.668 107.667 172.721 107.8C172.775 107.933 172.761 108.027 172.681 108.08L167.921 110.36C167.761 110.413 167.668 110.44 167.641 110.44C167.295 110.44 167.001 110.107 166.761 109.44C166.521 108.773 166.401 107.88 166.401 106.76V86.2C166.401 85.24 166.308 84.56 166.121 84.16C165.935 83.7333 165.615 83.52 165.161 83.52C164.788 83.52 164.215 83.6933 163.441 84.04H163.361C163.255 84.04 163.175 83.9867 163.121 83.88C163.068 83.7467 163.081 83.6533 163.161 83.6L168.481 81.04C168.535 81.0133 168.601 81 168.681 81C168.761 81 168.855 81.04 168.961 81.12C169.068 81.2 169.121 81.2933 169.121 81.4V105.52ZM31.16 137.48C31.16 138.493 31.4133 139.387 31.92 140.16C32.4267 140.907 33.04 141.56 33.76 142.12C34.48 142.653 35.48 143.307 36.76 144.08C38.0933 144.907 39.1467 145.627 39.92 146.24C40.72 146.827 41.4 147.56 41.96 148.44C42.52 149.32 42.8 150.36 42.8 151.56C42.8 152.867 42.4533 154.053 41.76 155.12C41.0933 156.16 40.12 156.987 38.84 157.6C37.5867 158.187 36.12 158.48 34.44 158.48C33.3733 158.48 32.32 158.347 31.28 158.08C30.24 157.84 29.3333 157.48 28.56 157C28.4267 156.92 28.3333 156.827 28.28 156.72C28.2267 156.613 28.2 156.453 28.2 156.24L27.8 150.52C27.7733 150.413 27.8267 150.347 27.96 150.32C28.12 150.293 28.2133 150.333 28.24 150.44C28.88 152.467 29.7733 154.187 30.92 155.6C32.0667 157.013 33.56 157.72 35.4 157.72C36.6533 157.72 37.7067 157.387 38.56 156.72C39.4133 156.027 39.84 154.907 39.84 153.36C39.84 152.187 39.5733 151.16 39.04 150.28C38.5067 149.4 37.8533 148.667 37.08 148.08C36.3067 147.467 35.28 146.773 34 146C32.7467 145.2 31.7467 144.52 31 143.96C30.28 143.373 29.6667 142.667 29.16 141.84C28.6533 140.987 28.4 140 28.4 138.88C28.4 137.52 28.76 136.36 29.48 135.4C30.2267 134.44 31.1867 133.733 32.36 133.28C33.56 132.8 34.8133 132.56 36.12 132.56C37.88 132.56 39.4933 132.867 40.96 133.48C41.36 133.667 41.56 133.907 41.56 134.2L41.76 139.2C41.76 139.307 41.68 139.373 41.52 139.4C41.3867 139.4 41.3067 139.347 41.28 139.24C40.9867 137.8 40.36 136.44 39.4 135.16C38.4667 133.88 37.12 133.24 35.36 133.24C34.0267 133.24 32.9867 133.64 32.24 134.44C31.52 135.24 31.16 136.253 31.16 137.48ZM49.9209 158C49.8676 158 49.8409 157.92 49.8409 157.76C49.8409 157.6 49.8676 157.52 49.9209 157.52C50.9076 157.52 51.5476 157.347 51.8409 157C52.1609 156.627 52.3209 155.88 52.3209 154.76V134.2C52.3209 133.24 52.2276 132.56 52.0409 132.16C51.8809 131.733 51.5743 131.52 51.1209 131.52C50.6676 131.52 50.0809 131.693 49.3609 132.04H49.3209C49.2143 132.04 49.1343 131.973 49.0809 131.84C49.0276 131.707 49.0409 131.613 49.1209 131.56L54.4809 129H54.6009C54.7076 129 54.8009 129.04 54.8809 129.12C54.9876 129.2 55.0409 129.293 55.0409 129.4V154.76C55.0409 155.88 55.2009 156.627 55.5209 157C55.8409 157.347 56.4943 157.52 57.4809 157.52C57.5609 157.52 57.6009 157.6 57.6009 157.76C57.6009 157.92 57.5609 158 57.4809 158C56.8143 158 56.2943 157.987 55.9209 157.96L53.7209 157.92L51.4409 157.96C51.0676 157.987 50.5609 158 49.9209 158ZM60.6809 158C60.6276 158 60.6009 157.92 60.6009 157.76C60.6009 157.6 60.6276 157.52 60.6809 157.52C61.6676 157.52 62.3076 157.347 62.6009 157C62.9209 156.627 63.0809 155.88 63.0809 154.76V148.6C63.0809 147.053 62.7876 145.907 62.2009 145.16C61.6409 144.413 60.7609 144.04 59.5609 144.04C58.6276 144.04 57.6809 144.32 56.7209 144.88C55.7609 145.44 54.9609 146.187 54.3209 147.12L54.1209 146.64C55.2409 145.12 56.3743 143.987 57.5209 143.24C58.6943 142.493 59.9209 142.12 61.2009 142.12C62.6676 142.12 63.8009 142.547 64.6009 143.4C65.4009 144.253 65.8009 145.467 65.8009 147.04V154.76C65.8009 155.88 65.9609 156.627 66.2809 157C66.6009 157.347 67.2543 157.52 68.2409 157.52C68.3209 157.52 68.3609 157.6 68.3609 157.76C68.3609 157.92 68.3209 158 68.2409 158C67.5743 158 67.0543 157.987 66.6809 157.96L64.4809 157.92L62.2009 157.96C61.8276 157.987 61.3209 158 60.6809 158ZM82.3591 158.52C80.7857 158.52 79.3991 158.147 78.1991 157.4C76.9991 156.627 76.0657 155.6 75.3991 154.32C74.7591 153.013 74.4391 151.6 74.4391 150.08C74.4391 148.347 74.8657 146.88 75.7191 145.68C76.5724 144.453 77.6657 143.547 78.9991 142.96C80.3324 142.347 81.6924 142.04 83.0791 142.04C84.6524 142.04 86.0391 142.427 87.2391 143.2C88.4391 143.973 89.3591 145 89.9991 146.28C90.6391 147.533 90.9591 148.867 90.9591 150.28C90.9591 151.907 90.5591 153.347 89.7591 154.6C88.9857 155.853 87.9457 156.827 86.6391 157.52C85.3324 158.187 83.9057 158.52 82.3591 158.52ZM83.5191 157.76C84.8524 157.76 85.8791 157.24 86.5991 156.2C87.3191 155.16 87.6791 153.587 87.6791 151.48C87.6791 149.747 87.4124 148.227 86.8791 146.92C86.3724 145.613 85.6657 144.613 84.7591 143.92C83.8524 143.2 82.8391 142.84 81.7191 142.84C80.4124 142.84 79.3991 143.347 78.6791 144.36C77.9857 145.347 77.6391 146.813 77.6391 148.76C77.6391 150.44 77.8924 151.973 78.3991 153.36C78.9057 154.72 79.5991 155.8 80.4791 156.6C81.3857 157.373 82.3991 157.76 83.5191 157.76ZM97.5359 169C97.4559 169 97.4159 168.92 97.4159 168.76C97.4159 168.6 97.4559 168.52 97.5359 168.52C98.2293 168.52 98.7493 168.44 99.0959 168.28C99.4426 168.147 99.6693 167.893 99.7759 167.52C99.9093 167.147 99.9759 166.56 99.9759 165.76V147.04C99.9759 146.133 99.8693 145.48 99.6559 145.08C99.4426 144.653 99.0826 144.44 98.5759 144.44C98.0693 144.44 97.3893 144.64 96.5359 145.04H96.4959C96.3893 145.04 96.3093 144.973 96.2559 144.84C96.1759 144.707 96.1893 144.627 96.2959 144.6L101.096 142.28C101.203 142.227 101.296 142.2 101.376 142.2C101.749 142.2 102.056 142.52 102.296 143.16C102.563 143.8 102.696 144.693 102.696 145.84V165.76C102.696 166.56 102.789 167.147 102.976 167.52C103.163 167.893 103.523 168.147 104.056 168.28C104.589 168.44 105.416 168.52 106.536 168.52C106.616 168.52 106.656 168.6 106.656 168.76C106.656 168.92 106.616 169 106.536 169C105.603 169 104.869 168.987 104.336 168.96L101.336 168.92L99.0959 168.96C98.7226 168.987 98.2026 169 97.5359 169ZM106.656 158.52C105.643 158.52 104.749 158.4 103.976 158.16C103.229 157.947 102.363 157.56 101.376 157L102.216 154.72C102.989 155.68 103.789 156.413 104.616 156.92C105.443 157.4 106.483 157.64 107.736 157.64C109.123 157.64 110.229 157.04 111.056 155.84C111.909 154.613 112.336 152.88 112.336 150.64C112.336 148.453 111.843 146.76 110.856 145.56C109.896 144.36 108.669 143.76 107.176 143.76C106.163 143.76 105.243 144.027 104.416 144.56C103.589 145.093 102.709 145.88 101.776 146.92L101.416 146.56C102.749 144.987 104.043 143.84 105.296 143.12C106.549 142.4 107.829 142.04 109.136 142.04C110.256 142.04 111.283 142.333 112.216 142.92C113.176 143.507 113.936 144.36 114.496 145.48C115.056 146.6 115.336 147.907 115.336 149.4C115.336 151.453 114.883 153.173 113.976 154.56C113.096 155.92 111.989 156.92 110.656 157.56C109.323 158.2 107.989 158.52 106.656 158.52Z" fill="#5E5353"/>
</g>
<defs>
<filter id="filter0_d_1_5" x="22.52" y="32.88" width="154.281" height="144.12" filterUnits="userSpaceOnUse" color-interpolation-filters="sRGB">
<feFlood flood-opacity="0" result="BackgroundImageFix"/>
<feColorMatrix in="SourceAlpha" type="matrix" values="0 0 0 0 0 0 0 0 0 0 0 0 0 0 0 0 0 0 127 0" result="hardAlpha"/>
<feOffset dy="4"/>
<feGaussianBlur stdDeviation="2"/>
<feComposite in2="hardAlpha" operator="out"/>
<feColorMatrix type="matrix" values="0 0 0 0 0 0 0 0 0 0 0 0 0 0 0 0 0 0 0.25 0"/>
<feBlend mode="normal" in2="BackgroundImageFix" result="effect1_dropShadow_1_5"/>
<feBlend mode="normal" in="SourceGraphic" in2="effect1_dropShadow_1_5" result="shape"/>
</filter>
</defs>
</svg>
